<?xml version="1.0" standalone="no"?>
<!DOCTYPE svg PUBLIC "-//W3C//DTD SVG 20010904//EN"
 "http://www.w3.org/TR/2001/REC-SVG-20010904/DTD/svg10.dtd">
<svg version="1.0" xmlns="http://www.w3.org/2000/svg"
 width="200.000000pt" height="200.000000pt" viewBox="0 0 200.000000 200.000000"
 preserveAspectRatio="xMidYMid meet">
<metadata>
Created by potrace 1.11, written by Peter Selinger 2001-2013
</metadata>
<g transform="translate(0.000000,200.000000) scale(0.100000,-0.100000)"
fill="#000000" stroke="none">
<path d="M615 1389 c-68 -16 -115 -75 -115 -145 0 -32 -11 -30 -53 9 -84 78
-136 100 -220 91 -119 -11 -187 -92 -204 -240 -7 -59 -3 -153 9 -203 10 -45
48 -98 93 -130 28 -19 58 -45 68 -58 32 -40 120 -77 139 -58 13 13 -7 56 -47
100 -56 61 -64 86 -60 182 3 80 23 152 50 179 18 18 16 33 20 -146 1 -69 6
-141 10 -160 8 -38 31 -70 50 -70 7 0 35 -23 62 -50 39 -39 60 -52 95 -59 74
-13 152 -1 167 27 13 25 20 90 27 246 7 173 12 279 13 286 2 10 41 9 47 -1 3
-6 8 -79 10 -162 6 -209 21 -287 58 -287 7 0 38 -25 70 -56 l57 -56 70 -3 c86
-2 129 16 141 60 13 49 25 254 27 450 1 54 3 61 21 61 19 0 20 -7 21 -96 1
-170 10 -282 24 -316 7 -18 27 -40 44 -49 17 -8 31 -19 31 -24 0 -4 11 -13 25
-19 14 -6 25 -18 25 -25 0 -22 43 -39 106 -41 97 -4 131 13 144 70 8 36 11 85
25 393 3 58 7 106 9 108 2 2 10 1 17 -2 16 -6 15 -1 19 -316 l2 -155 31 0 c25
1 33 -3 35 -21 2 -15 11 -23 30 -25 22 -2 26 -8 24 -25 -2 -13 0 -24 5 -24 4
-1 41 -2 81 -3 l73 -2 -2 249 c-1 137 -6 268 -11 292 -10 45 -56 102 -133 161
-69 53 -105 67 -183 70 -117 4 -195 -34 -208 -101 l-6 -31 -33 30 c-88 82
-146 106 -250 102 -106 -4 -175 -46 -175 -105 0 -26 -14 -27 -32 -3 -23 30
-108 84 -155 98 -51 16 -127 17 -188 3z"/>
</g>
</svg>
